# AST/ASF file generated using VICON BodyLanguage
# -----------------------------------------------
:version 1.10
:name VICON
:units
  mass 1.0
  length 0.45
  angle deg
:documentation
   .ast/.asf automatically generated from VICON data using
   VICON BodyBuilder and BodyLanguage model FoxedUp or BRILLIANT.MOD
:root
   order TX TY TZ RX RY RZ
   axis XYZ
   position 0 0 0  
   orientation 0 0 0 
:bonedata
  begin
     id 1 
     name lhipjoint
     direction 0.623529 -0.717805 0.309788 
     length 2.23224 
     axis 0 0 0  XYZ
  end
  begin
     id 2 
     name lfemur
     direction 0.34202 -0.939693 0  
     length 7.11402  
     axis 0 0 20  XYZ
    dof rx ry rz
    limits (-160.0 20.0)
           (-70.0 70.0)
           (-60.0 70.0)
  end
  begin
     id 3 
     name ltibia
     direction 0.34202 -0.939693 0   
     length 6.78496   
     axis 0 0 20   XYZ
    dof rx
    limits (-10.0 170.0)
  end
  begin
     id 4 
     name lfoot
     direction 0.125078 -0.343648 0.930732   
     length 1.84054   
     axis -90 7.62852e-016 20   XYZ
    dof rx rz
    limits (-45.0 90.0)
           (-70.0 20.0)
  end
  begin
     id 5 
     name ltoes
     direction 1.53565e-011 -4.21893e-011 1   
     length 0.916474   
     axis -90 7.62852e-016 20   XYZ
    dof rx
    limits (-90.0 20.0)
  end
  begin
     id 6 
     name rhipjoint
     direction -0.564688 -0.757748 0.327026   
     length 2.11457  
     axis 0 0 0  XYZ 
  end
  begin
     id 7 
     name rfemur
     direction -0.34202 -0.939693 0   
     length 7.14609   
     axis 0 0 -20   XYZ
    dof rx ry rz
    limits (-160.0 20.0)
           (-70.0 70.0)
           (-70.0 60.0)
  end
  begin
     id 8 
     name rtibia
     direction -0.34202 -0.939693 0   
     length 6.78101   
     axis 0 0 -20   XYZ
    dof rx
    limits (-10.0 170.0)
 end
 begin
     id 9 
     name rfoot
     direction -0.0992671 -0.272734 0.956955   
     length 1.96168  
     axis -90 -7.62852e-016 -20   XYZ
    dof rx rz
    limits (-45.0 90.0)
           (-20.0 70.0)
  end
  begin
     id 10 
     name rtoes
     direction -1.5356e-011 -4.21891e-011 1   
     length 0.982933   
     axis -90 -7.62852e-016 -20   XYZ
    dof rx
    limits (-90.0 20.0)
  end
  begin
     id 11 
     name lowerback
     direction -0.00596953 0.998668 0.0512524   
     length 1.87557   
     axis 0 0 0   XYZ
    dof rx ry rz
    limits (-20.0 45.0)
           (-30.0 30.0)
           (-30.0 30.0)
  end
  begin
     id 12 
     name upperback
     direction 0.00584879 0.999652 0.0257308   
     length 1.87883   
     axis 0 0 0   XYZ
    dof rx ry rz
    limits (-20.0 45.0)
           (-30.0 30.0)
           (-30.0 30.0)
  end
  begin
     id 13 
     name thorax
     direction 0.010104 0.999947 0.00178881   
     length 1.87779   
     axis 0 0 0   XYZ
    dof rx ry rz
    limits (-20.0 45.0)
           (-30.0 30.0)
           (-30.0 30.0)
  end
  begin
     id 14 
     name lowerneck
     direction 0.0120771 0.995934 -0.0892773   
     length 1.40897   
     axis 0 0 0   XYZ
    dof rx ry rz
    limits (-20.0 45.0)
           (-30.0 30.0)
           (-30.0 30.0)
  end
  begin
     id 15 
     name upperneck
     direction -0.030568 0.999465 -0.0116366   
     length 1.38661   
     axis 0 0 0   XYZ
    dof rx ry rz
    limits (-20.0 45.0)
           (-30.0 30.0)
           (-30.0 30.0)
  end
  begin
     id 16
     name head
     direction -0.0170715 0.999854 -0.00104426  
     length 1.47052  
     axis 0 0 0   XYZ
    dof rx ry rz
    limits (-20.0 45.0)
           (-30.0 30.0)
           (-30.0 30.0)
  end
  begin
     id 17 
     name lclavicle
     direction 0.977763 0.206143 0.038532  
     length 3.02424  
     axis 0 0 0   XYZ
    dof ry rz
    limits (-20.0 10.0)
           (0.0 20.0)
  end
  begin
     id 18 
     name lhumerus
     direction 1 -4.48965e-011 -2.62654e-027   
     length 4.68382   
     axis 180 -30 -90   XYZ
    dof rx ry rz
    limits (-60.0 90.0)
           (-90.0 90.0)
           (-90.0 90.0)
  end
  begin
     id 19
     name lradius
     direction 1 -4.48973e-011 -1.54954e-027   
     length 2.98124   
     axis 180 -30 -90   XYZ
    dof rx
    limits (-10.0 170.0)
  end
  begin
     id 20
     name lwrist
     direction 1 -4.48959e-011 7.20928e-028   
     length 1.49062   
     axis -5.52449e-016 90 90   XYZ
    dof ry
    limits (-180.0 0.0)
 end
  begin
     id 21 
     name lhand
     direction 1 -4.48971e-011 1.44186e-027   
     length 0.707595   
     axis -9.20027e-016 90 90   XYZ
    dof rx rz
    limits (-90.0 90.0)
           (-45.0 45.0)
  end
  begin
     id 22 
     name lfingers
     direction 1 -4.48985e-011 2.88371e-027   
     length 0.570481   
     axis -1.84005e-015 90 90   XYZ
    dof rx
    limits (0.0 90.0)
  end
  begin
     id 23
     name lthumb
     direction 0.707107 -6.34929e-011 0.707107   
     length 0.819101   
     axis -90 45 2.85299e-015   XYZ
    dof rx rz
    limits (-45.0 45.0)
           (-45.0 45.0)
  end
  begin
     id 24 
     name rclavicle
     direction -0.958661 0.284411 -0.00895327   
     length 3.11921  
     axis 0 0 0   XYZ 
    dof ry rz
    limits (-10.0 20.0)
           (-20.0 0.0)
  end
  begin
     id 25 
     name rhumerus
     direction -1 -4.48963e-011 -4.22193e-027  
     length 4.75876   
     axis 180 30 90   XYZ
    dof rx ry rz
    limits (-90.0 60.0)
           (-90.0 90.0)
           (-90.0 90.0)
  end
  begin
     id 26 
     name rradius
     direction -1 -4.48968e-011 -1.07616e-027   
     length 2.93293   
     axis 180 30 90   XYZ
    dof rx
    limits (-10.0 170.0)
  end
  begin
     id 27 
     name rwrist
     direction -1 -4.48965e-011 7.20928e-028   
     length 1.46647   
     axis -5.52449e-016 -90 -90   XYZ
    dof ry
    limits (-180.0 0.0)
  end
  begin
     id 28
     name rhand
     direction -1 -4.48971e-011 1.44186e-027   
     length 0.831748   
     axis -9.20027e-016 -90 -90   XYZ
    dof rx rz
    limits (-90.0 90.0)
           (-45.0 45.0)
  end
  begin
     id 29
     name rfingers
     direction -1 -4.48961e-011 2.88371e-027   
     length 0.670577   
     axis -1.84005e-015 -90 -90   XYZ
    dof rx
    limits (0.0 90.0)
  end
  begin
     id 30
     name rthumb
     direction -0.707107 -6.34929e-011 0.707107   
     length 0.962818   
     axis -90 -45 -2.85299e-015   XYZ
    dof rx rz
    limits (-45.0 45.0)
           (-45.0 45.0)
  end
:hierarchy
  begin
    root lhipjoint rhipjoint lowerback
    lhipjoint lfemur
    lfemur ltibia
    ltibia lfoot
    lfoot ltoes
    rhipjoint rfemur
    rfemur rtibia
    rtibia rfoot
    rfoot rtoes
    lowerback upperback
    upperback thorax
    thorax lowerneck lclavicle rclavicle
    lowerneck upperneck
    upperneck head
    lclavicle lhumerus
    lhumerus lradius
    lradius lwrist
    lwrist lhand lthumb
    lhand lfingers
    rclavicle rhumerus
    rhumerus rradius
    rradius rwrist
    rwrist rhand rthumb
    rhand rfingers
  end

#!OML:ASF E:\id_vita\Project 1\Capture day 1\Session 1\Female.ASF
:FULLY-SPECIFIED
:DEGREES
343
root 30.9058 16.2295 1.51795 -153.173 -77.9128 171.542
lowerback -2.89417 2.34517 -6.34484
upperback -2.59809 3.17188 -1.51589
thorax -1.32135 1.64594 2.03201
lowerneck 5.48823 1.30393 -2.39994
upperneck -15.475 2.07047 5.22321
head -5.64209 0.683348 1.91291
rclavicle 1.18277e-014 1.98785e-014
rhumerus -59.5697 -19.8587 -64.3116
rradius 32.6952
rwrist 4.58422
rhand -13.5889 4.09417
rfingers 7.12502
rthumb 12.5255 -25.5104
lclavicle 1.18277e-014 1.98785e-014
lhumerus -114.155 25.5798 -40.7521
lradius 12.4872
lwrist -98.141
lhand -0.0846793 25.9663
lfingers 7.12502
lthumb 25.5093 54.2787
rfemur -52.0642 2.64898 14.5171
rtibia 75.1953
rfoot -4.01307 -13.8658
rtoes -11.5869
lfemur -31.6408 1.05481 -27.2888
ltibia 39.096
lfoot -18.3941 24.2863
ltoes 10.3105
344
root 30.9541 16.2582 1.50125 -153.882 -77.9498 172.28
lowerback -3.04848 2.38316 -6.11627
upperback -2.68736 3.22513 -1.49823
thorax -1.31887 1.67033 1.9287
lowerneck 5.74188 1.2316 -2.43007
upperneck -15.4939 1.9718 5.22692
head -5.68807 0.635204 1.92471
rclavicle 1.23246e-014 -1.96797e-014
rhumerus -59.0824 -19.4493 -64.7197
rradius 33.816
rwrist 3.93177
rhand -13.7444 3.97108
rfingers 7.12502
rthumb 12.3756 -25.6426
lclavicle 1.23246e-014 -1.96797e-014
lhumerus -112.891 27.1632 -37.8508
lradius 12.3653
lwrist -95.2755
lhand -0.403174 26.0398
lfingers 7.12502
lthumb 25.2041 54.3955
rfemur -51.037 2.62766 14.5582
rtibia 75.1512
rfoot -3.80332 -13.9037
rtoes -11.6964
lfemur -31.4696 0.94388 -26.9609
ltibia 38.3519
lfoot -18.1748 24.337
ltoes 10.8646
345
root 30.9994 16.3184 1.48413 -154.92 -78.0161 173.376
lowerback -3.18357 2.40111 -5.88998
upperback -2.79807 3.2501 -1.39761
thorax -1.35184 1.68304 1.91008
lowerneck 5.8535 1.19697 -2.549
upperneck -15.4894 1.92084 5.2866
head -5.70529 0.612694 1.96632
rclavicle 5.26779e-015 1.92821e-014
rhumerus -58.5278 -18.9099 -65.1317
rradius 34.9059
rwrist 3.41109
rhand -13.9841 4.1233
rfingers 7.12502
rthumb 12.1444 -25.5042
lclavicle 5.26779e-015 1.92821e-014
lhumerus -110.485 29.3353 -32.5566
lradius 12.2962
lwrist -89.9206
lhand -0.529478 26.5578
lfingers 7.12502
lthumb 25.0831 54.9304
rfemur -49.8669 2.47686 14.7149
rtibia 74.8094
rfoot -3.79149 -13.6742
rtoes -11.5831
lfemur -31.2994 0.980845 -26.5543
ltibia 37.6028
lfoot -18.0364 23.9512
ltoes 13.1135
346
root 31.0436 16.3762 1.46308 -156.449 -78.1241 174.91
lowerback -3.29753 2.45321 -5.68223
upperback -2.86044 3.324 -1.22026
thorax -1.35594 1.7206 1.98141
lowerneck 5.96075 1.1394 -2.56151
upperneck -15.6021 1.82783 5.18521
head -5.75451 0.572542 1.94319
rclavicle 5.18331e-014 1.66979e-014
rhumerus -57.9238 -18.4639 -65.4278
rradius 35.855
rwrist 2.929
rhand -14.1832 4.43039
rfingers 7.12502
rthumb 11.9525 -25.2084
lclavicle 5.18331e-014 1.66979e-014
lhumerus -109.046 30.9465 -29.4496
lradius 12.2771
lwrist -86.9742
lhand -0.910337 26.4964
lfingers 7.12502
lthumb 24.7181 54.9196
rfemur -48.6281 2.34973 15.0086
rtibia 74.3183
rfoot -3.68018 -13.4381
rtoes -11.5469
lfemur -31.0038 0.850301 -25.9854
ltibia 36.7778
lfoot -17.6748 23.6435
ltoes 15.5499
347
root 31.0891 16.4137 1.44128 -157.504 -78.2362 175.897
lowerback -3.35146 2.49863 -5.26326
upperback -2.88411 3.37757 -1.29341
thorax -1.32319 1.73912 1.67706
lowerneck 5.87098 1.04663 -2.41571
upperneck -15.5343 1.71735 5.19359
head -5.71216 0.51156 1.92871
rclavicle 1.20265e-014 1.09332e-014
rhumerus -57.3124 -18.3145 -65.9318
rradius 36.7184
rwrist 2.60284
rhand -14.4517 4.87116
rfingers 7.12502
rthumb 11.6936 -24.7825
lclavicle 1.20265e-014 1.09332e-014
lhumerus -107.681 32.5656 -27.1289
lradius 12.2647
lwrist -84.6931
lhand -1.35705 26.5312
lfingers 7.12502
lthumb 24.2899 55.0123
rfemur -47.3554 2.24204 15.1553
rtibia 73.8134
rfoot -3.56164 -13.3934
rtoes -11.7767
lfemur -30.6153 0.516361 -25.5087
ltibia 35.8603
lfoot -16.8939 23.7615
ltoes 16.2328
348
root 31.1376 16.4413 1.42762 -157.16 -78.7322 175.455
lowerback -3.22974 2.41871 -5.05896
upperback -3.03006 3.25111 -1.27231
thorax -1.52225 1.67836 1.57371
lowerneck 6.03089 0.976769 -2.51326
upperneck -15.3864 1.62278 5.26942
head -5.69088 0.468968 1.97353
rclavicle 1.80894e-014 -1.5704e-014
rhumerus -56.9392 -18.0058 -66.067
rradius 37.5871
rwrist 2.4903
rhand -14.7535 5.26663
rfingers 7.12502
rthumb 11.4025 -24.4033
lclavicle 1.80894e-014 -1.5704e-014
lhumerus -105.533 34.0926 -23.2586
lradius 12.3392
lwrist -81.527
lhand -2.01728 26.3014
lfingers 7.12502
lthumb 23.6568 54.8658
rfemur -46.0494 1.67856 15.1308
rtibia 73.2927
rfoot -3.5778 -13.4339
rtoes -12.3998
lfemur -30.3576 -0.173878 -25.237
ltibia 35.0698
lfoot -15.8858 24.0183
ltoes 14.6977
349
root 31.1859 16.4617 1.42747 -155.204 -79.8865 173.274
lowerback -3.28775 2.08998 -4.45346
upperback -2.88871 2.81056 -1.4355
thorax -1.27418 1.43975 1.07252
lowerneck 6.1687 0.931598 -2.48941
upperneck -15.5285 1.57566 5.33453
head -5.7574 0.435502 1.99438
rclavicle 1.09332e-014 -1.64991e-014
rhumerus -56.1706 -17.9372 -66.4966
rradius 38.3777
rwrist 2.57798
rhand -15.0634 5.53074
rfingers 7.12502
rthumb 11.1036 -24.1555
lclavicle 1.09332e-014 -1.64991e-014
lhumerus -103.045 35.999 -18.9755
lradius 12.4519
lwrist -78.0201
lhand -2.65706 26.4143
lfingers 7.12502
lthumb 23.0431 55.0567
rfemur -44.5422 0.416885 15.0466
rtibia 72.7409
rfoot -3.5724 -13.6047
rtoes -13.1425
lfemur -30.0981 -1.32928 -25.1098
ltibia 34.4049
lfoot -14.9222 24.0227
ltoes 11.831
350
root 31.2312 16.4908 1.38673 -157.456 -79.1996 175.771
lowerback -3.77386 2.38991 -4.53338
upperback -3.03841 3.23066 -1.3614
thorax -1.18836 1.65034 1.21702
lowerneck 6.37866 0.848198 -2.43202
upperneck -15.617 1.4634 5.28162
head -5.81614 0.378335 1.97625
rclavicle -2.10712e-014 -7.95139e-016
rhumerus -55.6609 -17.4322 -67.0508
rradius 39.351
rwrist 2.28024
rhand -15.439 5.45022
rfingers 7.12502
rthumb 10.7413 -24.2552
lclavicle -2.10712e-014 -7.95139e-016
lhumerus -100.223 37.5354 -14.4156
lradius 12.5773
lwrist -74.4711
lhand -3.07856 27.2525
lfingers 7.12502
lthumb 22.6386 55.9449
rfemur -43.7083 1.23812 15.1791
rtibia 72.0222
rfoot -3.22376 -13.8664
rtoes -13.356
lfemur -30.1549 -0.89803 -24.6572
ltibia 33.8368
lfoot -14.6956 24.1752
ltoes 12.3821
351
root 31.2802 16.5187 1.37291 -157.262 -79.6058 175.806
lowerback -4.15283 2.32314 -4.52303
upperback -3.19324 3.1549 -1.1626
thorax -1.14346 1.61417 1.42655
lowerneck 6.86104 0.860919 -2.67679
upperneck -15.9185 1.46313 5.3191
head -5.99614 0.380726 2.03133
rclavicle 5.41688e-015 2.34566e-014
rhumerus -55.0387 -16.7502 -67.2802
rradius 40.1648
rwrist 1.98209
rhand -15.8256 5.35748
rfingers 7.12502
rthumb 10.3684 -24.3669
lclavicle 5.41688e-015 2.34566e-014
lhumerus -97.1293 38.8097 -9.17606
lradius 12.7611
lwrist -70.604
lhand -3.7434 27.7438
lfingers 7.12502
lthumb 22.0004 56.5126
rfemur -42.7519 0.842143 15.2156
rtibia 71.1978
rfoot -3.20302 -13.9238
rtoes -12.9974
lfemur -30.3432 -1.55631 -24.2893
ltibia 33.3486
lfoot -14.648 24.0191
ltoes 15.5633
352
root 31.3283 16.5439 1.35729 -156.805 -80.1877 175.431
lowerback -4.57583 2.18309 -4.11133
upperback -3.19534 2.97501 -1.2685
thorax -0.870556 1.50999 1.10393
lowerneck 7.23664 0.894916 -2.67339
upperneck -16.2127 1.54828 5.53566
head -6.15931 0.395334 2.09632
rclavicle 1.68967e-015 3.97569e-015
rhumerus -54.1626 -16.6587 -67.7587
rradius 40.6252
rwrist 2.18785
rhand -16.2114 5.4433
rfingers 7.12502
rthumb 9.99616 -24.2993
lclavicle 1.68967e-015 3.97569e-015
lhumerus -93.4395 40.1013 -3.85407
lradius 12.9813
lwrist -66.5038
lhand -4.55332 27.8752
lfingers 7.12502
lthumb 21.2225 56.7335
rfemur -41.572 0.30042 15.2784
rtibia 70.265
rfoot -3.21792 -14.1336
rtoes -11.1601
lfemur -30.4851 -2.26807 -23.9435
ltibia 33.0309
lfoot -14.4813 23.92
ltoes 16.9466
353
root 31.3746 16.565 1.33174 -157.574 -80.4351 176.057
lowerback -4.44086 2.17736 -4.04279
upperback -3.37885 2.9495 -1.1455
thorax -1.13679 1.50308 1.18015
lowerneck 7.57015 0.847496 -2.63513
upperneck -16.2024 1.47679 5.44413
head -6.21046 0.364382 2.06558
rclavicle -2.62396e-014 -2.08724e-014
rhumerus -53.6364 -16.2374 -67.9553
rradius 41.1334
rwrist 2.26383
rhand -16.5245 5.59938
rfingers 7.12502
rthumb 9.69417 -24.1575
lclavicle -2.62396e-014 -2.08724e-014
lhumerus -89.8311 40.8073 1.60508
lradius 13.2542
lwrist -62.9098
lhand -5.3323 28.1444
lfingers 7.12502
lthumb 20.4741 57.0849
rfemur -40.1522 0.178214 15.4402
rtibia 69.2333
rfoot -2.98062 -14.5554
rtoes -8.80851
lfemur -30.3355 -2.63908 -23.5362
ltibia 32.6998
lfoot -14.1501 24.0614
ltoes 16.7636
